<mxfile host="app.diagrams.net" modified="2021-05-10T15:39:16.633Z" agent="5.0 (Macintosh; Intel Mac OS X 10_15_7) AppleWebKit/537.36 (KHTML, like Gecko) Chrome/90.0.4430.93 Safari/537.36" etag="Dl4Km33-YoSvPrdQuY0F" version="14.6.11" type="github">
  <diagram id="C5RBs43oDa-KdzZeNtuy" name="Page-1">
    <mxGraphModel dx="1858" dy="627" grid="1" gridSize="10" guides="1" tooltips="1" connect="1" arrows="1" fold="1" page="1" pageScale="1" pageWidth="827" pageHeight="1169" math="0" shadow="0">
      <root>
        <mxCell id="WIyWlLk6GJQsqaUBKTNV-0" />
        <mxCell id="WIyWlLk6GJQsqaUBKTNV-1" parent="WIyWlLk6GJQsqaUBKTNV-0" />
        <mxCell id="VJ4mKKkLoQJ_K4ZHCy8K-11" style="edgeStyle=orthogonalEdgeStyle;rounded=0;orthogonalLoop=1;jettySize=auto;html=1;exitX=0.5;exitY=1;exitDx=0;exitDy=0;entryX=0.5;entryY=0;entryDx=0;entryDy=0;entryPerimeter=0;" edge="1" parent="WIyWlLk6GJQsqaUBKTNV-1" source="WIyWlLk6GJQsqaUBKTNV-3" target="VJ4mKKkLoQJ_K4ZHCy8K-10">
          <mxGeometry relative="1" as="geometry" />
        </mxCell>
        <mxCell id="WIyWlLk6GJQsqaUBKTNV-3" value="开始" style="rounded=1;whiteSpace=wrap;html=1;fontSize=12;glass=0;strokeWidth=1;shadow=0;" parent="WIyWlLk6GJQsqaUBKTNV-1" vertex="1">
          <mxGeometry x="160" y="80" width="120" height="40" as="geometry" />
        </mxCell>
        <mxCell id="VJ4mKKkLoQJ_K4ZHCy8K-4" style="edgeStyle=orthogonalEdgeStyle;rounded=0;orthogonalLoop=1;jettySize=auto;html=1;exitX=0.5;exitY=1;exitDx=0;exitDy=0;" edge="1" parent="WIyWlLk6GJQsqaUBKTNV-1" source="VJ4mKKkLoQJ_K4ZHCy8K-0" target="VJ4mKKkLoQJ_K4ZHCy8K-3">
          <mxGeometry relative="1" as="geometry" />
        </mxCell>
        <mxCell id="VJ4mKKkLoQJ_K4ZHCy8K-0" value="待生产计划" style="rounded=1;whiteSpace=wrap;html=1;fontSize=12;glass=0;strokeWidth=1;shadow=0;" vertex="1" parent="WIyWlLk6GJQsqaUBKTNV-1">
          <mxGeometry x="160" y="270" width="120" height="40" as="geometry" />
        </mxCell>
        <mxCell id="VJ4mKKkLoQJ_K4ZHCy8K-6" style="edgeStyle=orthogonalEdgeStyle;rounded=0;orthogonalLoop=1;jettySize=auto;html=1;exitX=0.5;exitY=1;exitDx=0;exitDy=0;entryX=0.5;entryY=0;entryDx=0;entryDy=0;entryPerimeter=0;" edge="1" parent="WIyWlLk6GJQsqaUBKTNV-1" source="VJ4mKKkLoQJ_K4ZHCy8K-3" target="VJ4mKKkLoQJ_K4ZHCy8K-7">
          <mxGeometry relative="1" as="geometry">
            <mxPoint x="270" y="410" as="targetPoint" />
          </mxGeometry>
        </mxCell>
        <mxCell id="VJ4mKKkLoQJ_K4ZHCy8K-3" value="排除资源占用达到阀值项目" style="rounded=1;whiteSpace=wrap;html=1;fontSize=12;glass=0;strokeWidth=1;shadow=0;" vertex="1" parent="WIyWlLk6GJQsqaUBKTNV-1">
          <mxGeometry x="160" y="350" width="120" height="40" as="geometry" />
        </mxCell>
        <mxCell id="VJ4mKKkLoQJ_K4ZHCy8K-8" style="edgeStyle=orthogonalEdgeStyle;rounded=0;orthogonalLoop=1;jettySize=auto;html=1;exitX=1;exitY=0.5;exitDx=0;exitDy=0;exitPerimeter=0;entryX=0.5;entryY=0;entryDx=0;entryDy=0;" edge="1" parent="WIyWlLk6GJQsqaUBKTNV-1" source="VJ4mKKkLoQJ_K4ZHCy8K-7" target="VJ4mKKkLoQJ_K4ZHCy8K-9">
          <mxGeometry relative="1" as="geometry">
            <mxPoint x="480" y="500" as="targetPoint" />
          </mxGeometry>
        </mxCell>
        <mxCell id="VJ4mKKkLoQJ_K4ZHCy8K-16" value="是" style="edgeLabel;html=1;align=center;verticalAlign=middle;resizable=0;points=[];" vertex="1" connectable="0" parent="VJ4mKKkLoQJ_K4ZHCy8K-8">
          <mxGeometry x="-0.5378" y="-2" relative="1" as="geometry">
            <mxPoint as="offset" />
          </mxGeometry>
        </mxCell>
        <mxCell id="VJ4mKKkLoQJ_K4ZHCy8K-17" style="edgeStyle=orthogonalEdgeStyle;rounded=0;orthogonalLoop=1;jettySize=auto;html=1;exitX=0.5;exitY=1;exitDx=0;exitDy=0;exitPerimeter=0;entryX=0.5;entryY=0;entryDx=0;entryDy=0;" edge="1" parent="WIyWlLk6GJQsqaUBKTNV-1" source="VJ4mKKkLoQJ_K4ZHCy8K-7" target="VJ4mKKkLoQJ_K4ZHCy8K-19">
          <mxGeometry relative="1" as="geometry">
            <mxPoint x="220" y="600" as="targetPoint" />
          </mxGeometry>
        </mxCell>
        <mxCell id="VJ4mKKkLoQJ_K4ZHCy8K-18" value="否" style="edgeLabel;html=1;align=center;verticalAlign=middle;resizable=0;points=[];" vertex="1" connectable="0" parent="VJ4mKKkLoQJ_K4ZHCy8K-17">
          <mxGeometry x="-0.3333" relative="1" as="geometry">
            <mxPoint as="offset" />
          </mxGeometry>
        </mxCell>
        <mxCell id="VJ4mKKkLoQJ_K4ZHCy8K-7" value="生产计划已完成" style="strokeWidth=2;html=1;shape=mxgraph.flowchart.decision;whiteSpace=wrap;" vertex="1" parent="WIyWlLk6GJQsqaUBKTNV-1">
          <mxGeometry x="170" y="430" width="100" height="80" as="geometry" />
        </mxCell>
        <mxCell id="VJ4mKKkLoQJ_K4ZHCy8K-9" value="结束" style="rounded=1;whiteSpace=wrap;html=1;fontSize=12;glass=0;strokeWidth=1;shadow=0;" vertex="1" parent="WIyWlLk6GJQsqaUBKTNV-1">
          <mxGeometry x="570" y="910" width="120" height="40" as="geometry" />
        </mxCell>
        <mxCell id="VJ4mKKkLoQJ_K4ZHCy8K-12" style="edgeStyle=orthogonalEdgeStyle;rounded=0;orthogonalLoop=1;jettySize=auto;html=1;exitX=0.5;exitY=1;exitDx=0;exitDy=0;exitPerimeter=0;entryX=0.5;entryY=0;entryDx=0;entryDy=0;" edge="1" parent="WIyWlLk6GJQsqaUBKTNV-1" source="VJ4mKKkLoQJ_K4ZHCy8K-10" target="VJ4mKKkLoQJ_K4ZHCy8K-0">
          <mxGeometry relative="1" as="geometry" />
        </mxCell>
        <mxCell id="VJ4mKKkLoQJ_K4ZHCy8K-13" value="是" style="edgeLabel;html=1;align=center;verticalAlign=middle;resizable=0;points=[];" vertex="1" connectable="0" parent="VJ4mKKkLoQJ_K4ZHCy8K-12">
          <mxGeometry x="-0.1" y="2" relative="1" as="geometry">
            <mxPoint as="offset" />
          </mxGeometry>
        </mxCell>
        <mxCell id="VJ4mKKkLoQJ_K4ZHCy8K-14" style="edgeStyle=orthogonalEdgeStyle;rounded=0;orthogonalLoop=1;jettySize=auto;html=1;exitX=1;exitY=0.5;exitDx=0;exitDy=0;exitPerimeter=0;" edge="1" parent="WIyWlLk6GJQsqaUBKTNV-1" source="VJ4mKKkLoQJ_K4ZHCy8K-10" target="VJ4mKKkLoQJ_K4ZHCy8K-9">
          <mxGeometry relative="1" as="geometry" />
        </mxCell>
        <mxCell id="VJ4mKKkLoQJ_K4ZHCy8K-15" value="否" style="edgeLabel;html=1;align=center;verticalAlign=middle;resizable=0;points=[];" vertex="1" connectable="0" parent="VJ4mKKkLoQJ_K4ZHCy8K-14">
          <mxGeometry x="-0.7943" y="2" relative="1" as="geometry">
            <mxPoint as="offset" />
          </mxGeometry>
        </mxCell>
        <mxCell id="VJ4mKKkLoQJ_K4ZHCy8K-10" value="有待生产计划" style="strokeWidth=2;html=1;shape=mxgraph.flowchart.decision;whiteSpace=wrap;" vertex="1" parent="WIyWlLk6GJQsqaUBKTNV-1">
          <mxGeometry x="170" y="150" width="100" height="80" as="geometry" />
        </mxCell>
        <mxCell id="VJ4mKKkLoQJ_K4ZHCy8K-20" style="edgeStyle=orthogonalEdgeStyle;rounded=0;orthogonalLoop=1;jettySize=auto;html=1;exitX=0.5;exitY=1;exitDx=0;exitDy=0;" edge="1" parent="WIyWlLk6GJQsqaUBKTNV-1" source="VJ4mKKkLoQJ_K4ZHCy8K-19">
          <mxGeometry relative="1" as="geometry">
            <mxPoint x="220" y="650" as="targetPoint" />
          </mxGeometry>
        </mxCell>
        <mxCell id="VJ4mKKkLoQJ_K4ZHCy8K-19" value="有效生产计划" style="rounded=1;whiteSpace=wrap;html=1;fontSize=12;glass=0;strokeWidth=1;shadow=0;" vertex="1" parent="WIyWlLk6GJQsqaUBKTNV-1">
          <mxGeometry x="160" y="560" width="120" height="40" as="geometry" />
        </mxCell>
        <mxCell id="VJ4mKKkLoQJ_K4ZHCy8K-22" style="edgeStyle=orthogonalEdgeStyle;rounded=0;orthogonalLoop=1;jettySize=auto;html=1;exitX=0;exitY=0.5;exitDx=0;exitDy=0;exitPerimeter=0;entryX=1;entryY=0.5;entryDx=0;entryDy=0;" edge="1" parent="WIyWlLk6GJQsqaUBKTNV-1" source="VJ4mKKkLoQJ_K4ZHCy8K-21" target="VJ4mKKkLoQJ_K4ZHCy8K-23">
          <mxGeometry relative="1" as="geometry">
            <mxPoint x="100" y="780" as="targetPoint" />
          </mxGeometry>
        </mxCell>
        <mxCell id="VJ4mKKkLoQJ_K4ZHCy8K-24" value="否" style="edgeLabel;html=1;align=center;verticalAlign=middle;resizable=0;points=[];" vertex="1" connectable="0" parent="VJ4mKKkLoQJ_K4ZHCy8K-22">
          <mxGeometry x="-0.3143" relative="1" as="geometry">
            <mxPoint as="offset" />
          </mxGeometry>
        </mxCell>
        <mxCell id="VJ4mKKkLoQJ_K4ZHCy8K-36" style="edgeStyle=orthogonalEdgeStyle;rounded=0;orthogonalLoop=1;jettySize=auto;html=1;exitX=0.5;exitY=1;exitDx=0;exitDy=0;exitPerimeter=0;entryX=0.5;entryY=0;entryDx=0;entryDy=0;" edge="1" parent="WIyWlLk6GJQsqaUBKTNV-1" source="VJ4mKKkLoQJ_K4ZHCy8K-21">
          <mxGeometry relative="1" as="geometry">
            <mxPoint x="220" y="870" as="targetPoint" />
          </mxGeometry>
        </mxCell>
        <mxCell id="VJ4mKKkLoQJ_K4ZHCy8K-68" value="是" style="edgeLabel;html=1;align=center;verticalAlign=middle;resizable=0;points=[];" vertex="1" connectable="0" parent="VJ4mKKkLoQJ_K4ZHCy8K-36">
          <mxGeometry x="-0.0559" relative="1" as="geometry">
            <mxPoint as="offset" />
          </mxGeometry>
        </mxCell>
        <mxCell id="VJ4mKKkLoQJ_K4ZHCy8K-21" value="有可用搅拌台" style="strokeWidth=2;html=1;shape=mxgraph.flowchart.decision;whiteSpace=wrap;" vertex="1" parent="WIyWlLk6GJQsqaUBKTNV-1">
          <mxGeometry x="170" y="740" width="100" height="80" as="geometry" />
        </mxCell>
        <mxCell id="VJ4mKKkLoQJ_K4ZHCy8K-61" style="edgeStyle=orthogonalEdgeStyle;rounded=0;orthogonalLoop=1;jettySize=auto;html=1;exitX=0;exitY=0.5;exitDx=0;exitDy=0;entryX=0.5;entryY=1;entryDx=0;entryDy=0;" edge="1" parent="WIyWlLk6GJQsqaUBKTNV-1" source="VJ4mKKkLoQJ_K4ZHCy8K-23" target="VJ4mKKkLoQJ_K4ZHCy8K-60">
          <mxGeometry relative="1" as="geometry" />
        </mxCell>
        <mxCell id="VJ4mKKkLoQJ_K4ZHCy8K-23" value="预估搅拌台释放时间" style="rounded=1;whiteSpace=wrap;html=1;fontSize=12;glass=0;strokeWidth=1;shadow=0;" vertex="1" parent="WIyWlLk6GJQsqaUBKTNV-1">
          <mxGeometry x="-60" y="760" width="120" height="40" as="geometry" />
        </mxCell>
        <mxCell id="VJ4mKKkLoQJ_K4ZHCy8K-55" style="edgeStyle=orthogonalEdgeStyle;rounded=0;orthogonalLoop=1;jettySize=auto;html=1;exitX=0.5;exitY=1;exitDx=0;exitDy=0;entryX=0.5;entryY=0;entryDx=0;entryDy=0;entryPerimeter=0;" edge="1" parent="WIyWlLk6GJQsqaUBKTNV-1" source="VJ4mKKkLoQJ_K4ZHCy8K-50" target="VJ4mKKkLoQJ_K4ZHCy8K-21">
          <mxGeometry relative="1" as="geometry" />
        </mxCell>
        <mxCell id="VJ4mKKkLoQJ_K4ZHCy8K-50" value="混凝土按标号分组&lt;br&gt;得到各标号需求总和" style="rounded=1;whiteSpace=wrap;html=1;fontSize=12;glass=0;strokeWidth=1;shadow=0;" vertex="1" parent="WIyWlLk6GJQsqaUBKTNV-1">
          <mxGeometry x="160" y="650" width="120" height="40" as="geometry" />
        </mxCell>
        <mxCell id="VJ4mKKkLoQJ_K4ZHCy8K-62" style="edgeStyle=orthogonalEdgeStyle;rounded=0;orthogonalLoop=1;jettySize=auto;html=1;entryX=0;entryY=0.5;entryDx=0;entryDy=0;entryPerimeter=0;exitX=0.5;exitY=0;exitDx=0;exitDy=0;" edge="1" parent="WIyWlLk6GJQsqaUBKTNV-1" source="VJ4mKKkLoQJ_K4ZHCy8K-63" target="VJ4mKKkLoQJ_K4ZHCy8K-10">
          <mxGeometry relative="1" as="geometry">
            <mxPoint y="180" as="targetPoint" />
            <mxPoint x="-190" y="500" as="sourcePoint" />
          </mxGeometry>
        </mxCell>
        <mxCell id="VJ4mKKkLoQJ_K4ZHCy8K-66" style="edgeStyle=orthogonalEdgeStyle;rounded=0;orthogonalLoop=1;jettySize=auto;html=1;exitX=0.5;exitY=0;exitDx=0;exitDy=0;entryX=0.5;entryY=1;entryDx=0;entryDy=0;" edge="1" parent="WIyWlLk6GJQsqaUBKTNV-1" source="VJ4mKKkLoQJ_K4ZHCy8K-60" target="VJ4mKKkLoQJ_K4ZHCy8K-65">
          <mxGeometry relative="1" as="geometry" />
        </mxCell>
        <mxCell id="VJ4mKKkLoQJ_K4ZHCy8K-60" value="插入重算时间" style="rounded=1;whiteSpace=wrap;html=1;fontSize=12;glass=0;strokeWidth=1;shadow=0;" vertex="1" parent="WIyWlLk6GJQsqaUBKTNV-1">
          <mxGeometry x="-370" y="670" width="120" height="40" as="geometry" />
        </mxCell>
        <mxCell id="VJ4mKKkLoQJ_K4ZHCy8K-63" value="定时器触发" style="rounded=1;whiteSpace=wrap;html=1;fontSize=12;glass=0;strokeWidth=1;shadow=0;" vertex="1" parent="WIyWlLk6GJQsqaUBKTNV-1">
          <mxGeometry x="-370" y="530" width="120" height="40" as="geometry" />
        </mxCell>
        <mxCell id="VJ4mKKkLoQJ_K4ZHCy8K-67" style="edgeStyle=orthogonalEdgeStyle;rounded=0;orthogonalLoop=1;jettySize=auto;html=1;exitX=0.5;exitY=0;exitDx=0;exitDy=0;entryX=0.5;entryY=1;entryDx=0;entryDy=0;" edge="1" parent="WIyWlLk6GJQsqaUBKTNV-1" source="VJ4mKKkLoQJ_K4ZHCy8K-65" target="VJ4mKKkLoQJ_K4ZHCy8K-63">
          <mxGeometry relative="1" as="geometry" />
        </mxCell>
        <mxCell id="VJ4mKKkLoQJ_K4ZHCy8K-65" value="计算最近时间点,设置定时器" style="rounded=1;whiteSpace=wrap;html=1;fontSize=12;glass=0;strokeWidth=1;shadow=0;" vertex="1" parent="WIyWlLk6GJQsqaUBKTNV-1">
          <mxGeometry x="-370" y="600" width="120" height="40" as="geometry" />
        </mxCell>
        <mxCell id="VJ4mKKkLoQJ_K4ZHCy8K-72" style="edgeStyle=orthogonalEdgeStyle;rounded=0;orthogonalLoop=1;jettySize=auto;html=1;exitX=0.5;exitY=1;exitDx=0;exitDy=0;entryX=0.5;entryY=0;entryDx=0;entryDy=0;entryPerimeter=0;" edge="1" parent="WIyWlLk6GJQsqaUBKTNV-1" source="VJ4mKKkLoQJ_K4ZHCy8K-71" target="VJ4mKKkLoQJ_K4ZHCy8K-73">
          <mxGeometry relative="1" as="geometry">
            <mxPoint x="219.64705882352928" y="960" as="targetPoint" />
          </mxGeometry>
        </mxCell>
        <mxCell id="VJ4mKKkLoQJ_K4ZHCy8K-71" value="匹配时间最紧迫计划" style="rounded=1;whiteSpace=wrap;html=1;fontSize=12;glass=0;strokeWidth=1;shadow=0;" vertex="1" parent="WIyWlLk6GJQsqaUBKTNV-1">
          <mxGeometry x="160" y="870" width="120" height="40" as="geometry" />
        </mxCell>
        <mxCell id="VJ4mKKkLoQJ_K4ZHCy8K-74" style="edgeStyle=orthogonalEdgeStyle;rounded=0;orthogonalLoop=1;jettySize=auto;html=1;exitX=0.5;exitY=1;exitDx=0;exitDy=0;exitPerimeter=0;entryX=0.5;entryY=0;entryDx=0;entryDy=0;" edge="1" parent="WIyWlLk6GJQsqaUBKTNV-1" source="VJ4mKKkLoQJ_K4ZHCy8K-73" target="VJ4mKKkLoQJ_K4ZHCy8K-75">
          <mxGeometry relative="1" as="geometry">
            <mxPoint x="220" y="1090" as="targetPoint" />
          </mxGeometry>
        </mxCell>
        <mxCell id="VJ4mKKkLoQJ_K4ZHCy8K-76" value="否" style="edgeLabel;html=1;align=center;verticalAlign=middle;resizable=0;points=[];" vertex="1" connectable="0" parent="VJ4mKKkLoQJ_K4ZHCy8K-74">
          <mxGeometry x="-0.0373" y="1" relative="1" as="geometry">
            <mxPoint y="-1" as="offset" />
          </mxGeometry>
        </mxCell>
        <mxCell id="VJ4mKKkLoQJ_K4ZHCy8K-81" style="edgeStyle=orthogonalEdgeStyle;rounded=0;orthogonalLoop=1;jettySize=auto;html=1;exitX=0;exitY=0.5;exitDx=0;exitDy=0;exitPerimeter=0;entryX=1;entryY=0.5;entryDx=0;entryDy=0;entryPerimeter=0;" edge="1" parent="WIyWlLk6GJQsqaUBKTNV-1" source="VJ4mKKkLoQJ_K4ZHCy8K-73" target="VJ4mKKkLoQJ_K4ZHCy8K-80">
          <mxGeometry relative="1" as="geometry" />
        </mxCell>
        <mxCell id="VJ4mKKkLoQJ_K4ZHCy8K-87" value="是" style="edgeLabel;html=1;align=center;verticalAlign=middle;resizable=0;points=[];" vertex="1" connectable="0" parent="VJ4mKKkLoQJ_K4ZHCy8K-81">
          <mxGeometry x="-0.2753" y="-1" relative="1" as="geometry">
            <mxPoint as="offset" />
          </mxGeometry>
        </mxCell>
        <mxCell id="VJ4mKKkLoQJ_K4ZHCy8K-73" value="需要泵车" style="strokeWidth=2;html=1;shape=mxgraph.flowchart.decision;whiteSpace=wrap;" vertex="1" parent="WIyWlLk6GJQsqaUBKTNV-1">
          <mxGeometry x="170" y="950" width="100" height="80" as="geometry" />
        </mxCell>
        <mxCell id="VJ4mKKkLoQJ_K4ZHCy8K-75" value="泵车匹配成功" style="rounded=1;whiteSpace=wrap;html=1;fontSize=12;glass=0;strokeWidth=1;shadow=0;" vertex="1" parent="WIyWlLk6GJQsqaUBKTNV-1">
          <mxGeometry x="160" y="1130" width="120" height="40" as="geometry" />
        </mxCell>
        <mxCell id="VJ4mKKkLoQJ_K4ZHCy8K-82" style="edgeStyle=orthogonalEdgeStyle;rounded=0;orthogonalLoop=1;jettySize=auto;html=1;exitX=0.5;exitY=1;exitDx=0;exitDy=0;exitPerimeter=0;entryX=0;entryY=0.5;entryDx=0;entryDy=0;" edge="1" parent="WIyWlLk6GJQsqaUBKTNV-1" source="VJ4mKKkLoQJ_K4ZHCy8K-80" target="VJ4mKKkLoQJ_K4ZHCy8K-75">
          <mxGeometry relative="1" as="geometry" />
        </mxCell>
        <mxCell id="VJ4mKKkLoQJ_K4ZHCy8K-83" value="是" style="edgeLabel;html=1;align=center;verticalAlign=middle;resizable=0;points=[];" vertex="1" connectable="0" parent="VJ4mKKkLoQJ_K4ZHCy8K-82">
          <mxGeometry x="-0.5731" relative="1" as="geometry">
            <mxPoint y="-1" as="offset" />
          </mxGeometry>
        </mxCell>
        <mxCell id="VJ4mKKkLoQJ_K4ZHCy8K-86" style="edgeStyle=orthogonalEdgeStyle;rounded=0;orthogonalLoop=1;jettySize=auto;html=1;exitX=0;exitY=0.5;exitDx=0;exitDy=0;exitPerimeter=0;entryX=1;entryY=0.5;entryDx=0;entryDy=0;" edge="1" parent="WIyWlLk6GJQsqaUBKTNV-1" source="VJ4mKKkLoQJ_K4ZHCy8K-80" target="VJ4mKKkLoQJ_K4ZHCy8K-85">
          <mxGeometry relative="1" as="geometry" />
        </mxCell>
        <mxCell id="VJ4mKKkLoQJ_K4ZHCy8K-88" value="否" style="edgeLabel;html=1;align=center;verticalAlign=middle;resizable=0;points=[];" vertex="1" connectable="0" parent="VJ4mKKkLoQJ_K4ZHCy8K-86">
          <mxGeometry x="-0.0655" y="-1" relative="1" as="geometry">
            <mxPoint as="offset" />
          </mxGeometry>
        </mxCell>
        <mxCell id="VJ4mKKkLoQJ_K4ZHCy8K-80" value="泵车已就绪" style="strokeWidth=2;html=1;shape=mxgraph.flowchart.decision;whiteSpace=wrap;" vertex="1" parent="WIyWlLk6GJQsqaUBKTNV-1">
          <mxGeometry x="-30" y="950" width="100" height="80" as="geometry" />
        </mxCell>
        <mxCell id="VJ4mKKkLoQJ_K4ZHCy8K-91" style="edgeStyle=orthogonalEdgeStyle;rounded=0;orthogonalLoop=1;jettySize=auto;html=1;exitX=0.5;exitY=1;exitDx=0;exitDy=0;entryX=0.5;entryY=0;entryDx=0;entryDy=0;entryPerimeter=0;" edge="1" parent="WIyWlLk6GJQsqaUBKTNV-1" source="VJ4mKKkLoQJ_K4ZHCy8K-85" target="VJ4mKKkLoQJ_K4ZHCy8K-90">
          <mxGeometry relative="1" as="geometry" />
        </mxCell>
        <mxCell id="VJ4mKKkLoQJ_K4ZHCy8K-85" value="预估泵车最快到场时间" style="rounded=1;whiteSpace=wrap;html=1;fontSize=12;glass=0;strokeWidth=1;shadow=0;" vertex="1" parent="WIyWlLk6GJQsqaUBKTNV-1">
          <mxGeometry x="-220" y="970" width="120" height="40" as="geometry" />
        </mxCell>
        <mxCell id="VJ4mKKkLoQJ_K4ZHCy8K-92" style="edgeStyle=orthogonalEdgeStyle;rounded=0;orthogonalLoop=1;jettySize=auto;html=1;exitX=0.5;exitY=1;exitDx=0;exitDy=0;exitPerimeter=0;entryX=0;entryY=0.5;entryDx=0;entryDy=0;" edge="1" parent="WIyWlLk6GJQsqaUBKTNV-1" source="VJ4mKKkLoQJ_K4ZHCy8K-90" target="VJ4mKKkLoQJ_K4ZHCy8K-75">
          <mxGeometry relative="1" as="geometry" />
        </mxCell>
        <mxCell id="VJ4mKKkLoQJ_K4ZHCy8K-93" value="是" style="edgeLabel;html=1;align=center;verticalAlign=middle;resizable=0;points=[];" vertex="1" connectable="0" parent="VJ4mKKkLoQJ_K4ZHCy8K-92">
          <mxGeometry x="-0.3024" y="-1" relative="1" as="geometry">
            <mxPoint as="offset" />
          </mxGeometry>
        </mxCell>
        <mxCell id="VJ4mKKkLoQJ_K4ZHCy8K-98" style="edgeStyle=orthogonalEdgeStyle;rounded=0;orthogonalLoop=1;jettySize=auto;html=1;exitX=0;exitY=0.5;exitDx=0;exitDy=0;exitPerimeter=0;" edge="1" parent="WIyWlLk6GJQsqaUBKTNV-1" source="VJ4mKKkLoQJ_K4ZHCy8K-90" target="VJ4mKKkLoQJ_K4ZHCy8K-97">
          <mxGeometry relative="1" as="geometry" />
        </mxCell>
        <mxCell id="VJ4mKKkLoQJ_K4ZHCy8K-90" value="罐车单程运输时间内&lt;br&gt;泵车是否可就位" style="strokeWidth=2;html=1;shape=mxgraph.flowchart.decision;whiteSpace=wrap;" vertex="1" parent="WIyWlLk6GJQsqaUBKTNV-1">
          <mxGeometry x="-240" y="1050" width="160" height="80" as="geometry" />
        </mxCell>
        <mxCell id="VJ4mKKkLoQJ_K4ZHCy8K-99" style="edgeStyle=orthogonalEdgeStyle;rounded=0;orthogonalLoop=1;jettySize=auto;html=1;exitX=0.5;exitY=0;exitDx=0;exitDy=0;entryX=0.5;entryY=1;entryDx=0;entryDy=0;" edge="1" parent="WIyWlLk6GJQsqaUBKTNV-1" source="VJ4mKKkLoQJ_K4ZHCy8K-97" target="VJ4mKKkLoQJ_K4ZHCy8K-60">
          <mxGeometry relative="1" as="geometry" />
        </mxCell>
        <mxCell id="VJ4mKKkLoQJ_K4ZHCy8K-97" value="泵车最快到场时间" style="rounded=1;whiteSpace=wrap;html=1;fontSize=12;glass=0;strokeWidth=1;shadow=0;" vertex="1" parent="WIyWlLk6GJQsqaUBKTNV-1">
          <mxGeometry x="-370" y="970" width="120" height="40" as="geometry" />
        </mxCell>
      </root>
    </mxGraphModel>
  </diagram>
</mxfile>
